{
  "accessors": [
    {
      "bufferView": 2,
      "componentType": 5126,
      "count": 7404,
      "max": [
        85.240707397460938,
        131.02204895019531,
        52.712051391601562
      ],
      "min": [
        -66.217994689941406,
        -5.6624412536621094e-07,
        -53.978382110595703
      ],
      "type": "VEC3"
    },
    {
      "bufferView": 2,
      "byteOffset": 88848,
      "componentType": 5126,
      "count": 7404,
      "max": [
        0.99999332427978516,
        1,
        0.99997889995574951
      ],
      "min": [
        -0.99999332427978516,
        -1,
        -0.9999968409538269
      ],
      "type": "VEC3"
    },
    {
      "bufferView": 3,
      "componentType": 5126,
      "count": 7404,
      "max": [
        0.99999582767486572,
        1,
        1,
        1
      ],
      "min": [
        -0.99997586011886597,
        -0.99999815225601196,
        -0.99999994039535522,
        -1
      ],
      "type": "VEC4"
    },
    {
      "bufferView": 1,
      "componentType": 5126,
      "count": 7404,
      "max": [
        0.99313443899154663,
        0.99732726812362671
      ],
      "min": [
        0.0046401917934417725,
        0.0065333843231201172
      ],
      "type": "VEC2"
    },
    {
      "bufferView": 0,
      "componentType": 5125,
      "count": 33159,
      "max": [
        7403
      ],
      "min": [
        0
      ],
      "type": "SCALAR"
    }
  ],
  "asset": {
    "extras": {
      "author": "Tejaswini (https://sketchfab.com/shamal02)",
      "license": "CC-BY-NC-4.0 (http://creativecommons.org/licenses/by-nc/4.0/)",
      "source": "https://sketchfab.com/3d-models/armchair-8b8caf8652d24545acfbc8c8c9580073",
      "title": "Armchair"
    },
    "generator": "Sketchfab-9.72.0",
    "version": "2.0"
  },
  "bufferViews": [
    {
      "buffer": 0,
      "byteLength": 132636,
      "byteOffset": 0,
      "name": "floatBufferViews",
      "target": 34963
    },
    {
      "buffer": 0,
      "byteLength": 59232,
      "byteOffset": 132636,
      "byteStride": 8,
      "name": "floatBufferViews",
      "target": 34962
    },
    {
      "buffer": 0,
      "byteLength": 177696,
      "byteOffset": 191868,
      "byteStride": 12,
      "name": "floatBufferViews",
      "target": 34962
    },
    {
      "buffer": 0,
      "byteLength": 118464,
      "byteOffset": 369564,
      "byteStride": 16,
      "name": "floatBufferViews",
      "target": 34962
    }
  ],
  "buffers": [
    {
      "byteLength": 488028,
      "uri": "scene.bin"
    }
  ],
  "images": [
    {
      "uri": "textures/low1_baseColor.png"
    },
    {
      "uri": "textures/low1_metallicRoughness.png"
    },
    {
      "uri": "textures/low1_normal.png"
    }
  ],
  "materials": [
    {
      "doubleSided": true,
      "emissiveFactor": [
        0,
        0,
        0
      ],
      "name": "low1",
      "normalTexture": {
        "index": 2,
        "scale": 1,
        "texCoord": 0
      },
      "pbrMetallicRoughness": {
        "baseColorFactor": [
          1,
          1,
          1,
          1
        ],
        "baseColorTexture": {
          "index": 0,
          "texCoord": 0
        },
        "metallicFactor": 1,
        "metallicRoughnessTexture": {
          "index": 1,
          "texCoord": 0
        },
        "roughnessFactor": 0.40899999999999997
      }
    }
  ],
  "meshes": [
    {
      "name": "Arm_chair_low_low1_0",
      "primitives": [
        {
          "attributes": {
            "NORMAL": 1,
            "POSITION": 0,
            "TANGENT": 2,
            "TEXCOORD_0": 3
          },
          "indices": 4,
          "material": 0,
          "mode": 4
        }
      ]
    }
  ],
  "nodes": [
    {
      "children": [
        1
      ],
      "name": "RootNode (gltf orientation matrix)",
      "rotation": [
        -0.70710678118654746,
        -0,
        -0,
        0.70710678118654757
      ]
    },
    {
      "children": [
        2
      ],
      "matrix": [
        0.90909093618392944,
        0,
        0,
        0,
        0,
        0.90909093618392944,
        0,
        0,
        0,
        0,
        0.90909093618392944,
        0,
        0,
        0,
        0,
        1
      ],
      "name": "RootNode (model correction matrix)"
    },
    {
      "children": [
        3
      ],
      "matrix": [
        1,
        0,
        0,
        0,
        0,
        0,
        1,
        0,
        0,
        -1,
        0,
        0,
        0,
        0,
        0,
        1
      ],
      "name": "f47d7c23ee484102862ac71b975eb6e2.fbx"
    },
    {
      "children": [
        4
      ],
      "name": "RootNode"
    },
    {
      "children": [
        5
      ],
      "matrix": [
        0.0099999997764825821,
        0,
        0,
        0,
        0,
        0.0099999997764825821,
        0,
        0,
        0,
        0,
        0.0099999997764825821,
        0,
        0,
        0,
        0,
        1
      ],
      "name": "Arm_chair_low"
    },
    {
      "mesh": 0,
      "name": "Arm_chair_low_low1_0"
    }
  ],
  "samplers": [
    {
      "magFilter": 9729,
      "minFilter": 9987,
      "wrapS": 10497,
      "wrapT": 10497
    }
  ],
  "scene": 0,
  "scenes": [
    {
      "name": "OSG_Scene",
      "nodes": [
        0
      ]
    }
  ],
  "textures": [
    {
      "sampler": 0,
      "source": 0
    },
    {
      "sampler": 0,
      "source": 1
    },
    {
      "sampler": 0,
      "source": 2
    }
  ]
}

